# xmcd
#
# Track frame offsets: 
#        150
#        17225
#        37810
#        59140
#        79235
#        95087
#        118542
#        135025
#        152937
#        181685
#        202060
#        219982
#        234877
#        250302
#        268705
#        288610
#
# Disc length: 4472 seconds
#
# Revision: 0
# Processed by: cddbd v1.5PL3 Copyright (c) Steve Scherf et al.
# Submitted via: ExactAudioCopy v0.95a5
#
DISCID=e1117610
DTITLE=Jessy Dixon - Live
DYEAR=1992
DGENRE=Gospel
TTITLE0=What Do You Call Him
TTITLE1=Operator
TTITLE2=I Choose To Follow You
TTITLE3=Heavenly Dove
TTITLE4=Go Tell The World
TTITLE5=It's Good To Know - Jesus Loves Me
TTITLE6=My One Love
TTITLE7=I Want To Get To Know You
TTITLE8=He Really Didn't Have To Die
TTITLE9=Through The Blood
TTITLE10=Jesus Is Alive And Well
TTITLE11=A New Name In Glory
TTITLE12=You Bring The Morning Light
TTITLE13=Alleluia
TTITLE14=He Lives
TTITLE15=Satisfied
EXTD=
EXTT0=
EXTT1=
EXTT2=
EXTT3=
EXTT4=
EXTT5=
EXTT6=
EXTT7=
EXTT8=
EXTT9=
EXTT10=
EXTT11=
EXTT12=
EXTT13=
EXTT14=
EXTT15=
PLAYORDER=
